# xmcd
#
# Track frame offsets:
#	150
#	16930
#	32804
#	48795
#	65257
#	83310
#	98752
#	115957
#	127654
#	145584
#	161603
#	179545
#	195123
#	225976
#
# Disc length: 3235 seconds
#
# Revision: 0
# Processed by: cddbd v1.5.2PL0 Copyright (c) Steve Scherf et al.
# Submitted via: dBpowerAMP V4.0
#
DISCID=970ca10e
DTITLE=Lianna Rose - Soak Up The World
DYEAR=1900
DGENRE=Country
TTITLE0=Higher Ground
TTITLE1=Don't Take the Girl
TTITLE2=Just Like a Rose
TTITLE3=Sugar On It
TTITLE4=New Guitar
TTITLE5=Ebony
TTITLE6=Smoking Gun
TTITLE7=Jack (New Strings)
TTITLE8=I want My Tractor Back
TTITLE9=I Still Cry
TTITLE10=Angels
TTITLE11=Jenny
TTITLE12=Am I The Song
TTITLE13=Sugar on It - Radio Remix
EXTD=
EXTT0=
EXTT1=
EXTT2=
EXTT3=
EXTT4=
EXTT5=
EXTT6=
EXTT7=
EXTT8=
EXTT9=
EXTT10=
EXTT11=
EXTT12=
EXTT13=
PLAYORDER=
